<?xml version="1.0" encoding="UTF-8"?>
<svg enable-background="new 0 0 800 600" version="1.0" viewBox="0 0 800 600" xml:space="preserve" xmlns="http://www.w3.org/2000/svg">
<style type="text/css">
	.st0{fill:#79018C;}
</style>
<path class="st0" d="m178.7 386.7h-1.3c-11.4 0-22.6-2.2-33.2-6.6-10.5-4.3-20-10.6-28-18.6-0.2-0.1-0.3-0.3-0.4-0.4-0.1-0.2-0.2-0.3-0.2-0.5 0.1-0.4 0.3-0.8 0.6-1 0.5-0.4 12.1-12.8 25.7-27.1l0.2-0.2c16.4-17.3 35-37 35.8-37.8 0.2-0.2 0.4-0.3 0.7-0.4 0.2 0 0.3 0.1 0.3 0.4 0.4 0.5 59.8 64.4 61.6 65.5 0.3 0.3 0.4 0.5 0.3 0.7s-0.4 0.3-0.8 0.3c-3.4 3.5-7.1 6.6-11.1 9.4-12.8 9.1-27.8 14.6-43.4 15.8-2.3 0.3-4.5 0.5-6.8 0.5zm286-20.7h-13.1c-1 0-1-0.5-1-1v-98.1c0-1 0.5-1 1-1h14.1c1 0 1 0.5 1 1v11.4c3.2-5.2 8-9.4 13.6-11.8 4.6-1.9 9.5-2.8 14.5-2.6s9.8 1.3 14.3 3.5c4.4 2.1 8.4 5.1 11.5 8.9s5.4 8.2 6.7 12.9c3.3 10.8 2.2 22.5-3 32.5-2.4 4.8-6 8.9-10.4 11.9s-9.5 4.9-14.8 5.4c-1.9 0.3-3.8 0.5-5.7 0.5-4.3 0-8.5-0.8-12.5-2.5-5.1-1.9-9.6-5.2-13.1-9.4-0.2-0.2-0.4-0.5-0.5-0.7-0.1-0.3-0.3-0.5-0.5-0.7v37.8c0 2 0 2-2.1 2zm24.6-89.4c-5.3 0-10.5 2-14.4 5.6-2.7 2.2-4.8 5-6.2 8.2s-2 6.6-1.9 10.1c0.5 1.6 0.8 3.3 1 4.9 0.7 5.4 3.4 10.4 7.4 14 4.1 3.6 9.3 5.6 14.8 5.7h0.3c4.5 0 8.8-1.3 12.6-3.7 3.7-2.5 6.6-6 8.4-10.1 2.1-5 2.4-10.5 1-15.8-0.7-3.9-2.4-7.6-5-10.6s-5.9-5.3-9.7-6.6c-2.7-1.2-5.5-1.8-8.3-1.7zm-85.1 64c-10 0-19.7-3.2-27.8-9.1-0.2-0.1-0.3-0.2-0.5-0.3-0.1-0.1-0.2-0.3-0.3-0.5-0.1-0.3-0.1-0.6 0-0.9 0-0.3 0.1-0.6 0.3-0.8 1.1-1.7 2-3.4 2.8-5.2 0.7-1.6 1.4-3.1 2.3-4.6 2 0.6 3.9 1.4 5.7 2.3 2.1 1 4.2 1.9 6.4 2.6 5.1 2.1 10.7 2.8 16.2 2 1.8-0.2 3.5-0.7 5-1.5 1-0.5 1.9-1.2 2.6-2.1s1.2-2 1.4-3.1 0.1-2.3-0.2-3.3c-0.3-1.1-0.9-2.1-1.8-2.8-1.6-1.5-3.5-2.5-5.6-3-2.7-1.1-5.4-2-8.1-2.8-1.8-0.5-3.4-1-5-1.6l-7.6-3c-3.4-1.6-6.2-4.2-8.1-7.4s-2.9-6.9-2.8-10.6 1.3-7.4 3.4-10.5 5.1-5.5 8.5-7c5.1-2 10.5-3 16-3 0.7 0 1.5 0 2.2 0.1 7.6 0.5 14.9 2.5 21.7 5.9 1.2 0.5 1.9 0.7 2 1.1s-0.2 1.1-1 2.3l-4.5 8.9-0.3 0.3c-0.2 0.2-0.3 0.4-0.6 0.4-0.2 0-0.5-0.1-0.7-0.2-6-3.4-12.8-5.5-19.7-5.9-2.6-0.4-5.2-0.1-7.6 1-1.2 0.4-2.3 1.1-3.1 2-0.8 1-1.3 2.1-1.5 3.4-0.3 1.3-0.2 2.6 0.4 3.7 0.6 1.2 1.5 2.1 2.7 2.7 3.3 2 6.9 3.5 10.6 4.5 4.3 1 8.6 2.5 12.6 4.5 2.6 1.1 4.9 2.6 7.1 4.5 2.5 2.1 4.4 4.7 5.6 7.8 1.2 3 1.5 6.3 1 9.5-0.3 4-1.9 7.7-4.4 10.8s-5.9 5.3-9.7 6.4c-5 1.6-10.3 2.5-15.6 2.5zm-82.4-1.4c-4 0-7.9-0.8-11.6-2.3-3-1.1-5.7-2.8-7.9-5-2.3-2.2-4-4.9-5.2-7.8-1.1-2.9-1.6-6.1-1.5-9.2 0.2-3.1 1-6.2 2.5-9 1.5-2.6 3.5-4.9 6-6.7 2.4-1.8 5.2-3 8.2-3.7 3.8-1 7.7-1.5 11.6-1.5h21.7c0.6 0 1.1-0.2 1.2-0.5v-0.3c0-0.1-0.1-0.2-0.2-0.2 0.1-1.8-0.1-3.6-0.5-5.4-0.7-2.5-2.1-4.7-4.1-6.4s-4.4-2.7-7-3c-7.2-1.4-14.6-0.5-21.2 2.5-2.4 1-4.6 2.4-6.6 4-0.2 0.2-0.4 0.3-0.6 0.3-0.3 0-0.6-0.3-0.9-0.8-2-3-3.9-6.1-5.6-9.4-0.3-0.3-0.4-0.5-0.3-0.7s0.4-0.3 0.8-0.3c9.5-6 20.5-9.1 31.7-9.1 1.7 0 3.5 0.1 5.2 0.2 3.9 0.2 7.6 1.2 11.1 3 3.8 1.7 7.1 4.4 9.5 7.8 2.5 3.4 4 7.3 4.6 11.4 0.4 4.8 0.6 9.5 0.5 14.3v36.5c0 1-0.5 1-1 1h-13.6c-1 0-1-0.5-1-1v-7.9c-6.1 4.9-13.4 7.9-21.2 8.9-1.5 0.2-3.1 0.3-4.6 0.3zm3.6-33.4c-3.3 0-6.5 0.5-9.6 1.5-1.4 0.4-2.6 1.2-3.5 2.2-1 1-1.7 2.3-2 3.7-0.6 2.8 0 5.6 1.5 8s3.9 4.1 6.6 4.8c3 0.9 6.2 1.2 9.3 0.9s6.1-1.3 8.9-2.8c2.9-1.1 5.3-3 7-5.6 1.6-2.6 2.4-5.6 2.1-8.7 0.3-1 0.5-2 0.5-3s-0.5-1-1-1h-19.8zm348.2 33.2c-5.2 0-10.5-0.9-15.4-2.7-5.8-1.9-11-5.4-14.9-10.1s-6.5-10.4-7.3-16.5c-1.7-7.8-0.8-15.9 2.5-23.2 2.4-5.5 6.1-10.3 10.9-13.9s10.4-6 16.3-6.8c6.4-1.1 12.9-0.9 19.2 0.5 5.2 1 9.9 3.4 13.8 7 3.8 3.6 6.6 8.2 8 13.2 2.2 6.8 2.9 14.1 2 21.2 0 1-0.5 1-1 1h-27.3c-7.5-1-15.1-1.5-22.7-1.5-1.5 0-3 0-4.6 0.1-0.2 0-0.4 0-0.6 0.1s-0.4 0.2-0.5 0.4-0.1 0.4-0.1 0.5c0 0.2 0.1 0.4 0.2 0.5 1.3 5 4.2 9.4 8.3 12.5s9.1 4.8 14.2 4.7h0.2 0.9c7.4 0 14.4-2.8 19.8-7.9l0.3-0.3c0.1-0.1 0.3-0.1 0.4-0.1s0.3 0 0.4 0.1l0.3 0.3c1.3 1.2 2.4 2.5 3.5 3.7s2.3 2.5 3.5 3.7l0.3 0.3c0.1 0.1 0.1 0.3 0.1 0.4s0 0.3-0.1 0.4l-0.3 0.3c-5.7 5.3-12.6 9-20.2 10.8-3.2 0.9-6.7 1.3-10.1 1.3zm-0.6-62.1c-4.5 0-8.8 1.4-12.4 4-2.3 1.6-4.2 3.7-5.7 6.2-1.4 2.4-2.4 5.1-2.7 7.9-0.2 0.4-0.2 0.6-0.2 0.8 0.1 0.1 0.6 0.2 1.2 0.2h40.4c1 0 1-0.5 1-1-0.3-3.7-1.5-7.2-3.5-10.3-1.7-2.2-3.8-4-6.3-5.2-2.4-1.3-5.1-2-7.9-2.1-1.4-0.4-2.7-0.5-3.9-0.5zm-111.7 61.5h-13.8c-1 0-1 0-1-1v-71c0-1 0.5-1 1-1h13.6c1 0 1 0.5 1 1l0.5 70.5c0 0.2 0 0.4-0.1 0.6s-0.2 0.4-0.3 0.5c-0.2 0.2-0.5 0.4-0.9 0.4zm41.5-1h-13.8c-1 0-1-0.5-1-1v-71c0-1 0.5-1 1-1h14.1c1 0 1 0.5 1 1v11.8c0.6-0.9 1.3-1.7 2-2.5 2.4-3 5.4-5.5 8.8-7.2 3.4-1.8 7.1-2.8 10.9-3.1 0.4 0 0.7-0.1 1.1-0.2s0.9-0.2 1.3-0.2c0.2 0 0.4 0 0.6 0.1s0.4 0.2 0.5 0.3c0.3 0.3 0.5 0.6 0.6 1s0.1 0.8 0 1.2c0 0.2-0.1 0.5-0.1 0.7v10.3c0 1-0.5 1-1 1-0.6 0-1.3-0.1-1.9-0.1-4.5 0-8.9 1.2-12.8 3.5-3.1 1.8-5.7 4.4-7.5 7.5s-2.7 6.7-2.6 10.2c-0.3 8.2-0.2 16.3-0.1 24.2 0.1 3.9 0.1 7.9 0.1 11.8 0 0.2 0 0.4-0.1 0.6s-0.2 0.4-0.3 0.5c-0.1 0.4-0.5 0.6-0.8 0.6zm-340.6-13.8c-0.3 0-0.5-0.1-0.7-0.3s-0.3-0.4-0.3-0.7c-0.4-0.5-77.3-82.9-81.8-86.7-0.6-0.6-1.1-0.9-1.5-0.9-0.6 0-1.1 0.5-2 1.4-0.7 0.7-80.3 85.3-81.3 86.8-0.2 0.2-0.4 0.3-0.6 0.3-0.1 0-0.1 0-0.2-0.1-0.1 0-0.1-0.1-0.1-0.1-0.1-0.2-0.1-0.4-0.1-0.6-2.5-8.8-3.6-18-3-27.1 0.4-13.2 4.3-26.1 11.1-37.5 5.9-10.9 14.1-20.3 24-27.6s21.4-12.4 33.5-14.7c6.6-1.6 13.3-2.4 20.1-2.4 11.6 0 23.1 2.3 33.8 6.9s20.4 11.2 28.4 19.6c12.8 12.4 21.1 28.7 23.8 46.3 0.9 4.7 1.2 9.5 1 14.3-0.4 7.5-1.6 14.9-3.5 22.2-0.1 0.4-0.1 0.9-0.6 0.9zm292.1-70.5c-2.5 0-4.8-0.9-6.6-2.7-0.9-0.9-1.6-1.9-2.1-3.1s-0.7-2.4-0.7-3.6c0-2.6 1-5 2.8-6.9 1.8-1.8 4.2-2.9 6.8-3h0.2c1.3 0 2.5 0.3 3.7 0.7 1.2 0.5 2.2 1.2 3.1 2.1s1.6 2 2 3.2 0.6 2.5 0.5 3.8c0 1.2-0.3 2.5-0.7 3.6-0.5 1.1-1.2 2.2-2.1 3-1.8 1.8-4.3 2.7-6.8 2.7l-0.1 0.2z"/>
</svg>
